<mxfile host="app.diagrams.net" agent="Mozilla/5.0 (Windows NT 10.0; Win64; x64) AppleWebKit/537.36 (KHTML, like Gecko) Chrome/128.0.0.0 Safari/537.36 Edg/128.0.0.0" version="24.7.17">
  <diagram name="Página-1" id="Xya1_9lU_pv2EQUGAe2L">
    <mxGraphModel dx="428" dy="469" grid="1" gridSize="10" guides="1" tooltips="1" connect="1" arrows="1" fold="1" page="1" pageScale="1" pageWidth="1169" pageHeight="827" math="0" shadow="0">
      <root>
        <mxCell id="0" />
        <mxCell id="1" parent="0" />
        <mxCell id="uU4uoM0qs9k_E2GrcZO3-1" value="Pessoa" style="shape=umlActor;verticalLabelPosition=bottom;verticalAlign=top;html=1;" vertex="1" parent="1">
          <mxGeometry x="300" y="80" width="30" height="60" as="geometry" />
        </mxCell>
        <mxCell id="uU4uoM0qs9k_E2GrcZO3-2" value="" style="rounded=0;whiteSpace=wrap;html=1;direction=south;" vertex="1" parent="1">
          <mxGeometry x="350" y="50" width="480" height="910" as="geometry" />
        </mxCell>
        <mxCell id="uU4uoM0qs9k_E2GrcZO3-3" value="Aluno" style="shape=umlActor;verticalLabelPosition=bottom;verticalAlign=top;html=1;" vertex="1" parent="1">
          <mxGeometry x="300" y="230" width="30" height="60" as="geometry" />
        </mxCell>
        <mxCell id="uU4uoM0qs9k_E2GrcZO3-4" value="Professor" style="shape=umlActor;verticalLabelPosition=bottom;verticalAlign=top;html=1;" vertex="1" parent="1">
          <mxGeometry x="300" y="670" width="30" height="60" as="geometry" />
        </mxCell>
        <mxCell id="uU4uoM0qs9k_E2GrcZO3-5" value="Empresa" style="shape=umlActor;verticalLabelPosition=bottom;verticalAlign=top;html=1;" vertex="1" parent="1">
          <mxGeometry x="850" y="220" width="30" height="60" as="geometry" />
        </mxCell>
        <mxCell id="uU4uoM0qs9k_E2GrcZO3-15" value="" style="endArrow=block;endSize=16;endFill=0;html=1;rounded=0;exitX=0.5;exitY=0;exitDx=0;exitDy=0;exitPerimeter=0;" edge="1" parent="1" source="uU4uoM0qs9k_E2GrcZO3-3">
          <mxGeometry width="160" relative="1" as="geometry">
            <mxPoint x="290" y="300" as="sourcePoint" />
            <mxPoint x="315" y="160" as="targetPoint" />
          </mxGeometry>
        </mxCell>
        <mxCell id="uU4uoM0qs9k_E2GrcZO3-16" value="" style="endArrow=block;endSize=16;endFill=0;html=1;rounded=0;" edge="1" parent="1">
          <mxGeometry width="160" relative="1" as="geometry">
            <mxPoint x="280" y="700" as="sourcePoint" />
            <mxPoint x="290" y="120" as="targetPoint" />
            <Array as="points">
              <mxPoint x="240" y="700" />
              <mxPoint x="240" y="260" />
              <mxPoint x="240" y="120" />
            </Array>
          </mxGeometry>
        </mxCell>
        <mxCell id="uU4uoM0qs9k_E2GrcZO3-17" value="" style="endArrow=none;html=1;rounded=0;" edge="1" parent="1">
          <mxGeometry width="50" height="50" relative="1" as="geometry">
            <mxPoint x="340" y="120" as="sourcePoint" />
            <mxPoint x="440" y="120" as="targetPoint" />
          </mxGeometry>
        </mxCell>
        <mxCell id="uU4uoM0qs9k_E2GrcZO3-18" value="Login" style="ellipse;whiteSpace=wrap;html=1;" vertex="1" parent="1">
          <mxGeometry x="440" y="80" width="120" height="80" as="geometry" />
        </mxCell>
        <mxCell id="uU4uoM0qs9k_E2GrcZO3-19" value="Trocar Moedas por Vantagens" style="ellipse;whiteSpace=wrap;html=1;" vertex="1" parent="1">
          <mxGeometry x="450" y="220" width="120" height="80" as="geometry" />
        </mxCell>
        <mxCell id="uU4uoM0qs9k_E2GrcZO3-20" value="Gerenciar Aluno" style="ellipse;whiteSpace=wrap;html=1;" vertex="1" parent="1">
          <mxGeometry x="450" y="303.5" width="120" height="80" as="geometry" />
        </mxCell>
        <mxCell id="uU4uoM0qs9k_E2GrcZO3-21" value="Receber Moeda" style="ellipse;whiteSpace=wrap;html=1;" vertex="1" parent="1">
          <mxGeometry x="460" y="390" width="120" height="80" as="geometry" />
        </mxCell>
        <mxCell id="uU4uoM0qs9k_E2GrcZO3-22" value="Resgatar Vantagem e Gerar Cupom" style="ellipse;whiteSpace=wrap;html=1;" vertex="1" parent="1">
          <mxGeometry x="465" y="480" width="120" height="80" as="geometry" />
        </mxCell>
        <mxCell id="uU4uoM0qs9k_E2GrcZO3-23" value="Visualizar Extrato de Transações" style="ellipse;whiteSpace=wrap;html=1;" vertex="1" parent="1">
          <mxGeometry x="465" y="570" width="120" height="80" as="geometry" />
        </mxCell>
        <mxCell id="uU4uoM0qs9k_E2GrcZO3-24" value="" style="endArrow=none;html=1;rounded=0;entryX=0.042;entryY=0.644;entryDx=0;entryDy=0;entryPerimeter=0;" edge="1" parent="1" target="uU4uoM0qs9k_E2GrcZO3-20">
          <mxGeometry width="50" height="50" relative="1" as="geometry">
            <mxPoint x="340" y="270" as="sourcePoint" />
            <mxPoint x="520" y="510" as="targetPoint" />
          </mxGeometry>
        </mxCell>
        <mxCell id="uU4uoM0qs9k_E2GrcZO3-25" value="" style="endArrow=none;html=1;rounded=0;entryX=0;entryY=0.5;entryDx=0;entryDy=0;" edge="1" parent="1" target="uU4uoM0qs9k_E2GrcZO3-19">
          <mxGeometry width="50" height="50" relative="1" as="geometry">
            <mxPoint x="340" y="260" as="sourcePoint" />
            <mxPoint x="465" y="365" as="targetPoint" />
          </mxGeometry>
        </mxCell>
        <mxCell id="uU4uoM0qs9k_E2GrcZO3-26" value="" style="endArrow=none;html=1;rounded=0;entryX=0;entryY=0.5;entryDx=0;entryDy=0;" edge="1" parent="1" target="uU4uoM0qs9k_E2GrcZO3-21">
          <mxGeometry width="50" height="50" relative="1" as="geometry">
            <mxPoint x="340" y="280" as="sourcePoint" />
            <mxPoint x="520" y="330" as="targetPoint" />
          </mxGeometry>
        </mxCell>
        <mxCell id="uU4uoM0qs9k_E2GrcZO3-27" value="" style="endArrow=none;html=1;rounded=0;entryX=0;entryY=0.5;entryDx=0;entryDy=0;" edge="1" parent="1" target="uU4uoM0qs9k_E2GrcZO3-22">
          <mxGeometry width="50" height="50" relative="1" as="geometry">
            <mxPoint x="340" y="300" as="sourcePoint" />
            <mxPoint x="520" y="330" as="targetPoint" />
          </mxGeometry>
        </mxCell>
        <mxCell id="uU4uoM0qs9k_E2GrcZO3-28" value="" style="endArrow=none;html=1;rounded=0;entryX=0;entryY=0.5;entryDx=0;entryDy=0;" edge="1" parent="1" target="uU4uoM0qs9k_E2GrcZO3-23">
          <mxGeometry width="50" height="50" relative="1" as="geometry">
            <mxPoint x="330" y="320" as="sourcePoint" />
            <mxPoint x="520" y="480" as="targetPoint" />
          </mxGeometry>
        </mxCell>
        <mxCell id="uU4uoM0qs9k_E2GrcZO3-29" value="" style="endArrow=none;html=1;rounded=0;entryX=0.008;entryY=0.625;entryDx=0;entryDy=0;entryPerimeter=0;" edge="1" parent="1" target="uU4uoM0qs9k_E2GrcZO3-23">
          <mxGeometry width="50" height="50" relative="1" as="geometry">
            <mxPoint x="340" y="710" as="sourcePoint" />
            <mxPoint x="460" y="700" as="targetPoint" />
          </mxGeometry>
        </mxCell>
        <mxCell id="uU4uoM0qs9k_E2GrcZO3-30" value="Consultar Saldo" style="ellipse;whiteSpace=wrap;html=1;" vertex="1" parent="1">
          <mxGeometry x="465" y="660" width="120" height="80" as="geometry" />
        </mxCell>
        <mxCell id="uU4uoM0qs9k_E2GrcZO3-31" value="" style="endArrow=none;html=1;rounded=0;entryX=0;entryY=0.5;entryDx=0;entryDy=0;" edge="1" parent="1" target="uU4uoM0qs9k_E2GrcZO3-30">
          <mxGeometry width="50" height="50" relative="1" as="geometry">
            <mxPoint x="340" y="710" as="sourcePoint" />
            <mxPoint x="460" y="660" as="targetPoint" />
          </mxGeometry>
        </mxCell>
        <mxCell id="uU4uoM0qs9k_E2GrcZO3-32" value="" style="endArrow=none;html=1;rounded=0;exitX=0.117;exitY=0.25;exitDx=0;exitDy=0;exitPerimeter=0;" edge="1" parent="1" source="uU4uoM0qs9k_E2GrcZO3-30">
          <mxGeometry width="50" height="50" relative="1" as="geometry">
            <mxPoint x="410" y="670" as="sourcePoint" />
            <mxPoint x="320" y="320" as="targetPoint" />
          </mxGeometry>
        </mxCell>
        <mxCell id="uU4uoM0qs9k_E2GrcZO3-33" value="Enviar Moeda para Aluno" style="ellipse;whiteSpace=wrap;html=1;" vertex="1" parent="1">
          <mxGeometry x="465" y="747" width="120" height="80" as="geometry" />
        </mxCell>
        <mxCell id="uU4uoM0qs9k_E2GrcZO3-34" value="" style="endArrow=none;html=1;rounded=0;entryX=0;entryY=0.5;entryDx=0;entryDy=0;" edge="1" parent="1" target="uU4uoM0qs9k_E2GrcZO3-33">
          <mxGeometry width="50" height="50" relative="1" as="geometry">
            <mxPoint x="340" y="720" as="sourcePoint" />
            <mxPoint x="500" y="780" as="targetPoint" />
          </mxGeometry>
        </mxCell>
        <mxCell id="uU4uoM0qs9k_E2GrcZO3-35" value="" style="endArrow=none;html=1;rounded=0;exitX=1;exitY=0.5;exitDx=0;exitDy=0;" edge="1" parent="1" source="uU4uoM0qs9k_E2GrcZO3-18">
          <mxGeometry width="50" height="50" relative="1" as="geometry">
            <mxPoint x="680" y="350" as="sourcePoint" />
            <mxPoint x="840" y="260" as="targetPoint" />
          </mxGeometry>
        </mxCell>
        <mxCell id="uU4uoM0qs9k_E2GrcZO3-37" value="Gerar Código de Validação" style="ellipse;whiteSpace=wrap;html=1;" vertex="1" parent="1">
          <mxGeometry x="630" y="260" width="120" height="80" as="geometry" />
        </mxCell>
        <mxCell id="uU4uoM0qs9k_E2GrcZO3-38" value="Cadastrar Vantagens" style="ellipse;whiteSpace=wrap;html=1;" vertex="1" parent="1">
          <mxGeometry x="630" y="360" width="120" height="80" as="geometry" />
        </mxCell>
        <mxCell id="uU4uoM0qs9k_E2GrcZO3-39" value="Cadastrar Produtos com Descrição e Foto" style="ellipse;whiteSpace=wrap;html=1;" vertex="1" parent="1">
          <mxGeometry x="630" y="460" width="120" height="80" as="geometry" />
        </mxCell>
        <mxCell id="uU4uoM0qs9k_E2GrcZO3-40" value="Gerenciar Empresa" style="ellipse;whiteSpace=wrap;html=1;" vertex="1" parent="1">
          <mxGeometry x="630" y="560" width="120" height="80" as="geometry" />
        </mxCell>
        <mxCell id="uU4uoM0qs9k_E2GrcZO3-41" value="" style="endArrow=none;html=1;rounded=0;exitX=1;exitY=0.5;exitDx=0;exitDy=0;" edge="1" parent="1" source="uU4uoM0qs9k_E2GrcZO3-37">
          <mxGeometry width="50" height="50" relative="1" as="geometry">
            <mxPoint x="650" y="470" as="sourcePoint" />
            <mxPoint x="840" y="270" as="targetPoint" />
          </mxGeometry>
        </mxCell>
        <mxCell id="uU4uoM0qs9k_E2GrcZO3-42" value="" style="endArrow=none;html=1;rounded=0;exitX=1;exitY=0.5;exitDx=0;exitDy=0;" edge="1" parent="1" source="uU4uoM0qs9k_E2GrcZO3-38">
          <mxGeometry width="50" height="50" relative="1" as="geometry">
            <mxPoint x="650" y="470" as="sourcePoint" />
            <mxPoint x="840" y="270" as="targetPoint" />
          </mxGeometry>
        </mxCell>
        <mxCell id="uU4uoM0qs9k_E2GrcZO3-43" value="" style="endArrow=none;html=1;rounded=0;exitX=1;exitY=0.5;exitDx=0;exitDy=0;" edge="1" parent="1" source="uU4uoM0qs9k_E2GrcZO3-39">
          <mxGeometry width="50" height="50" relative="1" as="geometry">
            <mxPoint x="650" y="470" as="sourcePoint" />
            <mxPoint x="840" y="270" as="targetPoint" />
          </mxGeometry>
        </mxCell>
        <mxCell id="uU4uoM0qs9k_E2GrcZO3-44" value="" style="endArrow=none;html=1;rounded=0;exitX=0.958;exitY=0.35;exitDx=0;exitDy=0;exitPerimeter=0;" edge="1" parent="1" source="uU4uoM0qs9k_E2GrcZO3-40">
          <mxGeometry width="50" height="50" relative="1" as="geometry">
            <mxPoint x="650" y="470" as="sourcePoint" />
            <mxPoint x="840" y="270" as="targetPoint" />
          </mxGeometry>
        </mxCell>
      </root>
    </mxGraphModel>
  </diagram>
</mxfile>
